G04*
G04 #@! TF.GenerationSoftware,Altium Limited,Altium Designer,21.2.0 (30)*
G04*
G04 Layer_Color=65535*
%FSLAX25Y25*%
%MOIN*%
G70*
G04*
G04 #@! TF.SameCoordinates,4742D7D9-DA5C-4C41-987D-65E330EEAA4A*
G04*
G04*
G04 #@! TF.FilePolarity,Positive*
G04*
G01*
G75*
%ADD10C,0.00787*%
%ADD11C,0.00984*%
%ADD12C,0.01968*%
%ADD13C,0.00394*%
%ADD14C,0.00600*%
%ADD15C,0.01000*%
G36*
X190315Y35361D02*
X192802D01*
Y32012D01*
X190315D01*
Y35361D01*
D02*
G37*
G36*
X209209Y35359D02*
X211712D01*
Y32012D01*
X209209D01*
Y35359D01*
D02*
G37*
G36*
X205512Y37432D02*
X207523D01*
Y30063D01*
X205512D01*
Y37432D01*
D02*
G37*
G36*
X232480Y149508D02*
X230906Y146358D01*
X228642Y143898D01*
X226378Y142421D01*
X223425Y141339D01*
X220472Y140945D01*
X217913Y141240D01*
X215256Y142028D01*
X212598Y143701D01*
X210531Y145768D01*
X209055Y148327D01*
X208169Y150886D01*
X207874Y152362D01*
X233071D01*
X232480Y149508D01*
D02*
G37*
G36*
X194335Y101649D02*
X191831D01*
Y104996D01*
X194335D01*
Y101649D01*
D02*
G37*
G36*
X213228Y101647D02*
X210742D01*
Y104996D01*
X213228D01*
Y101647D01*
D02*
G37*
G36*
X198031Y99576D02*
X196020D01*
Y106945D01*
X198031D01*
Y99576D01*
D02*
G37*
D10*
X100394Y153543D02*
G03*
X100394Y153543I-9843J0D01*
G01*
X257480Y71535D02*
G03*
X257480Y71535I-5512J0D01*
G01*
X257382Y51535D02*
G03*
X257382Y51535I-5512J0D01*
G01*
X257480Y91594D02*
G03*
X257480Y91594I-5512J0D01*
G01*
X233071Y153543D02*
G03*
X233071Y153543I-12598J0D01*
G01*
X71437Y30354D02*
G03*
X66437Y30354I-2500J0D01*
G01*
X104724Y152756D02*
X115748D01*
X104724D02*
Y164173D01*
X115748Y152756D02*
Y164173D01*
X104724D02*
X115748D01*
X13201Y166142D02*
X54134D01*
Y147441D02*
Y166142D01*
X13201Y147441D02*
Y166142D01*
Y147441D02*
X54134D01*
X13201Y152091D02*
X54134D01*
X234252Y103032D02*
X265354D01*
X256199Y67498D02*
X256955Y66776D01*
X246982Y76295D02*
X247739Y75573D01*
X265354Y40039D02*
Y103032D01*
X234252Y40039D02*
Y103032D01*
Y40039D02*
X265354D01*
X256100Y47498D02*
X256856Y46776D01*
X246884Y56295D02*
X247640Y55573D01*
X246982Y96354D02*
X247739Y95632D01*
X256199Y87557D02*
X256955Y86835D01*
X9685Y108346D02*
X19685D01*
Y98347D02*
Y108346D01*
X9685Y98347D02*
Y108346D01*
X19685Y105847D02*
X22185Y108346D01*
X27185D01*
X29685Y105847D01*
Y100847D02*
Y105847D01*
X27185Y98347D02*
X29685Y100847D01*
X22185Y98347D02*
X27185D01*
X19685Y100847D02*
X22185Y98347D01*
X9685D02*
X19685D01*
X9685Y78976D02*
Y88976D01*
X19685Y76476D02*
X22185Y78976D01*
X19685Y86476D02*
X22185Y88976D01*
X19685Y81476D02*
X22185Y78976D01*
X19685Y81476D02*
Y88976D01*
X9685Y78976D02*
X17185D01*
X9685Y88976D02*
X19685D01*
X17185Y78976D02*
X19685Y76476D01*
X9685D02*
X12185Y78976D01*
X9685Y41476D02*
Y46476D01*
Y51476D02*
Y56476D01*
Y61476D02*
Y66476D01*
Y71476D02*
Y76476D01*
X22185Y48976D02*
X27185D01*
X29685Y46476D01*
Y41476D02*
Y46476D01*
X27185Y38976D02*
X29685Y41476D01*
X22185Y38976D02*
X27185D01*
X19685Y41476D02*
X22185Y38976D01*
X19685Y41476D02*
Y46476D01*
X22185Y48976D01*
X19685Y56476D02*
X22185Y58976D01*
X19685Y51476D02*
Y56476D01*
Y51476D02*
X22185Y48976D01*
X27185D02*
X29685Y51476D01*
Y56476D01*
X27185Y58976D02*
X29685Y56476D01*
X27185Y68976D02*
X29685Y66476D01*
Y61476D02*
Y66476D01*
X27185Y58976D02*
X29685Y61476D01*
X22185Y58976D02*
X27185D01*
X19685Y61476D02*
X22185Y58976D01*
X19685Y61476D02*
Y66476D01*
X22185Y68976D01*
X19685Y71476D02*
Y76476D01*
Y71476D02*
X22185Y68976D01*
X27185D01*
X29685Y71476D01*
Y76476D01*
X27185Y78976D02*
X29685Y76476D01*
X27185Y88976D02*
X29685Y86476D01*
X22185Y88976D02*
X27185D01*
X22185Y78976D02*
X27185D01*
X29685Y81476D01*
Y86476D01*
Y81476D02*
Y86476D01*
X17185Y68976D02*
X19685Y71476D01*
X12185Y68976D02*
X17185D01*
X9685Y71476D02*
X12185Y68976D01*
X29685Y71476D02*
Y76476D01*
X9685Y66476D02*
X12185Y68976D01*
X29685Y61476D02*
Y66476D01*
X9685Y61476D02*
X12185Y58976D01*
X17185D01*
X19685Y61476D01*
X17185Y68976D02*
X19685Y66476D01*
X17185Y58976D02*
X19685Y56476D01*
X17185Y48976D02*
X19685Y51476D01*
X9685D02*
X12185Y48976D01*
X29685Y51476D02*
Y56476D01*
X9685D02*
X12185Y58976D01*
X9685Y46476D02*
X12185Y48976D01*
X29685Y41476D02*
Y46476D01*
X9685Y41476D02*
X12185Y38976D01*
X17185D01*
X19685Y41476D01*
X17185Y48976D02*
X19685Y46476D01*
X12185Y48976D02*
X17185D01*
X10236Y131299D02*
X38583D01*
X10236D02*
X10236Y119488D01*
X38583D01*
X38583Y131299D01*
X59094Y97638D02*
X78780D01*
X59094Y30354D02*
X66437D01*
X71437D02*
X78780D01*
X59094D02*
Y97638D01*
X78780Y30354D02*
Y97638D01*
X33465Y59646D02*
X45276Y59646D01*
X33465Y59646D02*
Y87992D01*
X45276Y87992D01*
Y59646D02*
Y87992D01*
X190945Y134449D02*
X202756Y134449D01*
X190945Y134449D02*
Y162795D01*
X202756Y162795D01*
Y134449D02*
Y162795D01*
X145276Y39567D02*
X173622D01*
X145276D02*
X145276Y27756D01*
X173622D01*
X173622Y39567D01*
X236811Y124016D02*
X265158D01*
X236811D02*
X236811Y112205D01*
X265158D01*
X265158Y124016D01*
X215551Y75787D02*
X227362Y75787D01*
Y47441D02*
Y75787D01*
X215551Y47441D02*
X227362Y47441D01*
X215551Y47441D02*
Y75787D01*
X259646Y128347D02*
Y169280D01*
X240945Y128347D02*
X259646D01*
X240945Y169280D02*
X259646D01*
X240945Y128347D02*
Y169280D01*
X245595Y128347D02*
Y169280D01*
X174291Y118032D02*
X184291D01*
X174291D02*
Y128032D01*
X184291Y118032D02*
Y128032D01*
X171791Y118032D02*
X174291Y120531D01*
X166791Y118032D02*
X171791D01*
X164291Y120531D02*
X166791Y118032D01*
X164291Y120531D02*
Y125531D01*
X166791Y128032D01*
X171791D01*
X174291Y125531D01*
Y128032D02*
X184291D01*
X94410Y112284D02*
X104409D01*
Y102284D02*
Y112284D01*
X94410Y102284D02*
Y112284D01*
X104409Y109783D02*
X106909Y112284D01*
X111909D01*
X114409Y109783D01*
Y104783D02*
Y109783D01*
X111909Y102284D02*
X114409Y104783D01*
X106909Y102284D02*
X111909D01*
X104409Y104783D02*
X106909Y102284D01*
X94410D02*
X104409D01*
X102362Y15669D02*
X112362D01*
X102362D02*
Y25669D01*
X112362Y15669D02*
Y25669D01*
X99862Y15669D02*
X102362Y18169D01*
X94862Y15669D02*
X99862D01*
X92362Y18169D02*
X94862Y15669D01*
X92362Y18169D02*
Y23169D01*
X94862Y25669D01*
X99862D01*
X102362Y23169D01*
Y25669D02*
X112362D01*
X164291Y51102D02*
Y61102D01*
X174291D01*
X164291Y51102D02*
X174291D01*
X164291Y63602D02*
X166791Y61102D01*
X164291Y63602D02*
Y68602D01*
X166791Y71102D01*
X171791D01*
X174291Y68602D01*
Y63602D02*
Y68602D01*
X171791Y61102D02*
X174291Y63602D01*
Y51102D02*
Y61102D01*
D11*
X84390Y28307D02*
G03*
X84390Y28307I-492J0D01*
G01*
D12*
X262795Y48898D02*
D03*
D13*
X94095Y39567D02*
X141339D01*
X94095Y27756D02*
Y39567D01*
X141339Y27756D02*
Y39567D01*
X94095Y27756D02*
X141339D01*
X135827Y142638D02*
X183071D01*
Y154449D01*
X135827Y142638D02*
Y154449D01*
X183071D01*
X95276Y99803D02*
X142520D01*
X95276Y87992D02*
Y99803D01*
X142520Y87992D02*
Y99803D01*
X95276Y87992D02*
X142520D01*
D14*
X201012Y33685D02*
X203370D01*
X197012Y36185D02*
X201012Y33685D01*
Y36185D01*
Y31185D02*
Y33685D01*
X197012Y31185D02*
X201012Y33685D01*
X195012D02*
X201012D01*
X197012Y31185D02*
Y36185D01*
X209209Y30063D02*
Y37307D01*
X192815Y30063D02*
X209209D01*
X192815D02*
Y37307D01*
X209209D01*
X200173Y103323D02*
X202532D01*
X206532Y100823D01*
X202532D02*
Y103323D01*
Y105823D01*
Y103323D02*
X206532Y105823D01*
X202532Y103323D02*
X208531D01*
X206532Y100823D02*
Y105823D01*
X194335Y99701D02*
Y106945D01*
X210728D01*
Y99701D02*
Y106945D01*
X194335Y99701D02*
X210728D01*
D15*
X105336Y172684D02*
X109335Y166686D01*
Y172684D02*
X105336Y166686D01*
X111334Y171684D02*
X112334Y172684D01*
X114333D01*
X115333Y171684D01*
Y170685D01*
X114333Y169685D01*
X115333Y168685D01*
Y167686D01*
X114333Y166686D01*
X112334D01*
X111334Y167686D01*
Y168685D01*
X112334Y169685D01*
X111334Y170685D01*
Y171684D01*
X112334Y169685D02*
X114333D01*
X10848Y117074D02*
X14847Y111076D01*
Y117074D02*
X10848Y111076D01*
X16846Y117074D02*
X20845D01*
Y116074D01*
X16846Y112075D01*
Y111076D01*
X242246Y35676D02*
X246244Y29678D01*
Y35676D02*
X242246Y29678D01*
X252242Y35676D02*
X250243Y34677D01*
X248244Y32677D01*
Y30678D01*
X249243Y29678D01*
X251243D01*
X252242Y30678D01*
Y31677D01*
X251243Y32677D01*
X248244D01*
X151498Y64023D02*
X155496Y58025D01*
Y64023D02*
X151498Y58025D01*
X161495Y64023D02*
X157496D01*
Y61024D01*
X159495Y62023D01*
X160495D01*
X161495Y61024D01*
Y59024D01*
X160495Y58025D01*
X158495D01*
X157496Y59024D01*
X115080Y23668D02*
X119079Y17670D01*
Y23668D02*
X115080Y17670D01*
X124077D02*
Y23668D01*
X121078Y20669D01*
X125077D01*
X102876Y121109D02*
X106874Y115111D01*
Y121109D02*
X102876Y115111D01*
X108874Y120110D02*
X109873Y121109D01*
X111873D01*
X112872Y120110D01*
Y119110D01*
X111873Y118110D01*
X110873D01*
X111873D01*
X112872Y117111D01*
Y116111D01*
X111873Y115111D01*
X109873D01*
X108874Y116111D01*
X175710Y115991D02*
X179709Y109993D01*
Y115991D02*
X175710Y109993D01*
X185707D02*
X181708D01*
X185707Y113992D01*
Y114991D01*
X184707Y115991D01*
X182708D01*
X181708Y114991D01*
X15686Y35479D02*
X19685Y29481D01*
Y35479D02*
X15686Y29481D01*
X21684D02*
X23684D01*
X22684D01*
Y35479D01*
X21684Y34480D01*
X193184Y48275D02*
Y44276D01*
X195183Y42277D01*
X197182Y44276D01*
Y48275D01*
X199182D02*
Y42277D01*
X202181D01*
X203181Y43276D01*
Y47275D01*
X202181Y48275D01*
X199182D01*
X205180Y47275D02*
X206179Y48275D01*
X208179D01*
X209178Y47275D01*
Y46275D01*
X208179Y45276D01*
X207179D01*
X208179D01*
X209178Y44276D01*
Y43276D01*
X208179Y42277D01*
X206179D01*
X205180Y43276D01*
X199286Y114810D02*
Y110811D01*
X201285Y108812D01*
X203285Y110811D01*
Y114810D01*
X205284D02*
Y108812D01*
X208283D01*
X209283Y109812D01*
Y113810D01*
X208283Y114810D01*
X205284D01*
X215281Y108812D02*
X211282D01*
X215281Y112811D01*
Y113810D01*
X214281Y114810D01*
X212282D01*
X211282Y113810D01*
X81359Y172800D02*
Y168801D01*
X83358Y166802D01*
X85358Y168801D01*
Y172800D01*
X87357D02*
Y166802D01*
X90356D01*
X91356Y167801D01*
Y171800D01*
X90356Y172800D01*
X87357D01*
X93355Y166802D02*
X95354D01*
X94355D01*
Y172800D01*
X93355Y171800D01*
X113112Y43556D02*
Y49554D01*
X116111D01*
X117111Y48555D01*
Y46555D01*
X116111Y45555D01*
X113112D01*
X115111D02*
X117111Y43556D01*
X119110Y48555D02*
X120110Y49554D01*
X122109D01*
X123109Y48555D01*
Y47555D01*
X122109Y46555D01*
X121109D01*
X122109D01*
X123109Y45555D01*
Y44556D01*
X122109Y43556D01*
X120110D01*
X119110Y44556D01*
X118033Y102316D02*
Y108314D01*
X121032D01*
X122032Y107314D01*
Y105315D01*
X121032Y104315D01*
X118033D01*
X120033D02*
X122032Y102316D01*
X128030D02*
X124031D01*
X128030Y106315D01*
Y107314D01*
X127030Y108314D01*
X125031D01*
X124031Y107314D01*
X155450Y157355D02*
Y163353D01*
X158449D01*
X159449Y162354D01*
Y160354D01*
X158449Y159355D01*
X155450D01*
X157449D02*
X159449Y157355D01*
X161448D02*
X163447D01*
X162448D01*
Y163353D01*
X161448Y162354D01*
X34372Y174653D02*
Y168655D01*
X37371D01*
X38370Y169654D01*
Y173653D01*
X37371Y174653D01*
X34372D01*
X40370Y173653D02*
X41369Y174653D01*
X43369D01*
X44368Y173653D01*
Y172653D01*
X43369Y171653D01*
X42369D01*
X43369D01*
X44368Y170654D01*
Y169654D01*
X43369Y168655D01*
X41369D01*
X40370Y169654D01*
X231222Y177409D02*
Y171410D01*
X234221D01*
X235221Y172410D01*
Y176409D01*
X234221Y177409D01*
X231222D01*
X241219Y171410D02*
X237220D01*
X241219Y175409D01*
Y176409D01*
X240219Y177409D01*
X238220D01*
X237220Y176409D01*
X64899Y111267D02*
Y105269D01*
X67898D01*
X68898Y106268D01*
Y110267D01*
X67898Y111267D01*
X64899D01*
X70897Y105269D02*
X72896D01*
X71897D01*
Y111267D01*
X70897Y110267D01*
X45063Y127393D02*
X44064Y128393D01*
X42064D01*
X41065Y127393D01*
Y123394D01*
X42064Y122395D01*
X44064D01*
X45063Y123394D01*
X47063D02*
X48062Y122395D01*
X50062D01*
X51061Y123394D01*
Y127393D01*
X50062Y128393D01*
X48062D01*
X47063Y127393D01*
Y126393D01*
X48062Y125394D01*
X51061D01*
X224591Y83495D02*
X223591Y84495D01*
X221592D01*
X220592Y83495D01*
Y79497D01*
X221592Y78497D01*
X223591D01*
X224591Y79497D01*
X226590Y83495D02*
X227590Y84495D01*
X229589D01*
X230589Y83495D01*
Y82496D01*
X229589Y81496D01*
X230589Y80496D01*
Y79497D01*
X229589Y78497D01*
X227590D01*
X226590Y79497D01*
Y80496D01*
X227590Y81496D01*
X226590Y82496D01*
Y83495D01*
X227590Y81496D02*
X229589D01*
X227347Y120110D02*
X226347Y121109D01*
X224348D01*
X223348Y120110D01*
Y116111D01*
X224348Y115111D01*
X226347D01*
X227347Y116111D01*
X229346Y121109D02*
X233345D01*
Y120110D01*
X229346Y116111D01*
Y115111D01*
X156776Y48456D02*
X155776Y49456D01*
X153777D01*
X152777Y48456D01*
Y44457D01*
X153777Y43458D01*
X155776D01*
X156776Y44457D01*
X162774Y49456D02*
X160775Y48456D01*
X158775Y46457D01*
Y44457D01*
X159775Y43458D01*
X161774D01*
X162774Y44457D01*
Y45457D01*
X161774Y46457D01*
X158775D01*
X214748Y174047D02*
X213749Y175046D01*
X211749D01*
X210750Y174047D01*
Y170048D01*
X211749Y169048D01*
X213749D01*
X214748Y170048D01*
X220746Y175046D02*
X216748D01*
Y172047D01*
X218747Y173047D01*
X219747D01*
X220746Y172047D01*
Y170048D01*
X219747Y169048D01*
X217747D01*
X216748Y170048D01*
X195536Y171158D02*
X194536Y172158D01*
X192537D01*
X191537Y171158D01*
Y167159D01*
X192537Y166160D01*
X194536D01*
X195536Y167159D01*
X200534Y166160D02*
Y172158D01*
X197535Y169159D01*
X201534D01*
X38099Y96384D02*
X37099Y97384D01*
X35100D01*
X34100Y96384D01*
Y92386D01*
X35100Y91386D01*
X37099D01*
X38099Y92386D01*
X40098Y91386D02*
X42097D01*
X41098D01*
Y97384D01*
X40098Y96384D01*
M02*
