G04*
G04 #@! TF.GenerationSoftware,Altium Limited,Altium Designer,21.2.0 (30)*
G04*
G04 Layer_Color=16711935*
%FSLAX25Y25*%
%MOIN*%
G70*
G04*
G04 #@! TF.SameCoordinates,D78A5DD7-0F4C-42E9-AD24-41DAAD22F730*
G04*
G04*
G04 #@! TF.FilePolarity,Negative*
G04*
G01*
G75*
%ADD16C,0.08674*%
%ADD17C,0.07099*%
%ADD18C,0.07887*%
%ADD19C,0.09461*%
%ADD20R,0.08674X0.08674*%
%ADD21R,0.08674X0.08674*%
%ADD22P,0.06832X8X292.5*%
%ADD23C,0.06312*%
%ADD24R,0.07887X0.07887*%
%ADD25C,0.06800*%
%ADD26C,0.03300*%
%ADD27C,0.05800*%
%ADD45R,0.05524X0.07099*%
%ADD46R,0.05721X0.04737*%
D16*
X24016Y158465D02*
D03*
X33858D02*
D03*
X43701D02*
D03*
X24685Y103347D02*
D03*
Y43976D02*
D03*
Y63976D02*
D03*
Y53976D02*
D03*
X14685Y43976D02*
D03*
Y53976D02*
D03*
X24685Y83976D02*
D03*
X14685Y73976D02*
D03*
X24685D02*
D03*
X14685Y63976D02*
D03*
X251969Y158465D02*
D03*
Y148622D02*
D03*
Y138779D02*
D03*
X169291Y123031D02*
D03*
X109409Y107283D02*
D03*
X97362Y20669D02*
D03*
X169291Y66102D02*
D03*
D17*
X137402Y33661D02*
D03*
X98032D02*
D03*
X90551Y148543D02*
D03*
Y158543D02*
D03*
X14567Y125394D02*
D03*
X34252D02*
D03*
X39370Y63976D02*
D03*
Y83661D02*
D03*
X196850Y138779D02*
D03*
Y158465D02*
D03*
X149606Y33661D02*
D03*
X169291D02*
D03*
X260827Y118110D02*
D03*
X241142D02*
D03*
X221457Y71457D02*
D03*
Y51772D02*
D03*
X139764Y148543D02*
D03*
X179134D02*
D03*
X138583Y93898D02*
D03*
X99213D02*
D03*
D18*
X182087Y33661D02*
D03*
X221457D02*
D03*
X53898Y33819D02*
D03*
X83898Y43819D02*
D03*
Y53819D02*
D03*
Y63819D02*
D03*
X53898D02*
D03*
Y43819D02*
D03*
X83898Y93819D02*
D03*
Y83819D02*
D03*
Y73819D02*
D03*
X53898Y53819D02*
D03*
Y73721D02*
D03*
Y83720D02*
D03*
Y93721D02*
D03*
X182087Y103347D02*
D03*
X221457D02*
D03*
D19*
X251969Y51535D02*
D03*
Y71535D02*
D03*
Y91535D02*
D03*
D20*
X14685Y103347D02*
D03*
X110236Y158465D02*
D03*
X179291Y123031D02*
D03*
X99410Y107283D02*
D03*
X107362Y20669D02*
D03*
D21*
X14685Y83976D02*
D03*
X169291Y56102D02*
D03*
D22*
X220472Y158465D02*
D03*
D23*
Y148622D02*
D03*
D24*
X83898Y33819D02*
D03*
D25*
X264173Y11417D02*
D03*
X264173Y185433D02*
D03*
X11417D02*
D03*
Y11417D02*
D03*
D26*
X40551Y133071D02*
D03*
X72047Y170079D02*
D03*
X258268Y64961D02*
D03*
X246063Y77953D02*
D03*
Y64961D02*
D03*
X142126Y46457D02*
D03*
X120079Y68110D02*
D03*
X105118Y75197D02*
D03*
Y45669D02*
D03*
X246063Y177165D02*
D03*
X258268Y77953D02*
D03*
X246063Y59055D02*
D03*
X255906Y39370D02*
D03*
X246063Y19685D02*
D03*
X226378Y177165D02*
D03*
Y137795D02*
D03*
X236221Y78740D02*
D03*
X226378Y59055D02*
D03*
X236221Y39370D02*
D03*
X226378Y19685D02*
D03*
X206693Y177165D02*
D03*
Y137795D02*
D03*
X216535Y118110D02*
D03*
X206693Y98425D02*
D03*
X216535Y78740D02*
D03*
X206693Y59055D02*
D03*
Y19685D02*
D03*
X187008Y177165D02*
D03*
Y137795D02*
D03*
X196850Y118110D02*
D03*
Y78740D02*
D03*
Y39370D02*
D03*
X187008Y19685D02*
D03*
X167323Y177165D02*
D03*
Y137795D02*
D03*
Y98425D02*
D03*
Y19685D02*
D03*
X147638Y177165D02*
D03*
Y137795D02*
D03*
Y98425D02*
D03*
X157480Y78740D02*
D03*
X147638Y59055D02*
D03*
X157480Y39370D02*
D03*
X147638Y19685D02*
D03*
X127953Y177165D02*
D03*
Y137795D02*
D03*
X137795Y118110D02*
D03*
X127953Y98425D02*
D03*
X108268Y177165D02*
D03*
Y137795D02*
D03*
X118110Y118110D02*
D03*
X108268Y98425D02*
D03*
X118110Y39370D02*
D03*
X88583Y177165D02*
D03*
Y137795D02*
D03*
X98425Y118110D02*
D03*
X88583Y19685D02*
D03*
X68898Y177165D02*
D03*
Y137795D02*
D03*
X78740Y118110D02*
D03*
X68898Y98425D02*
D03*
Y59055D02*
D03*
Y19685D02*
D03*
X49213Y177165D02*
D03*
X59055Y118110D02*
D03*
X49213Y98425D02*
D03*
X29528Y177165D02*
D03*
X39370Y118110D02*
D03*
Y39370D02*
D03*
X9843Y137795D02*
D03*
D27*
X146457Y68110D02*
D03*
Y85039D02*
D03*
D45*
X21260Y139370D02*
D03*
X33858D02*
D03*
D46*
X64961Y166929D02*
D03*
Y159055D02*
D03*
X98819Y75000D02*
D03*
Y82874D02*
D03*
Y45669D02*
D03*
Y53543D02*
D03*
M02*
