G04*
G04 #@! TF.GenerationSoftware,Altium Limited,Altium Designer,21.2.0 (30)*
G04*
G04 Layer_Color=32896*
%FSLAX25Y25*%
%MOIN*%
G70*
G04*
G04 #@! TF.SameCoordinates,4742D7D9-DA5C-4C41-987D-65E330EEAA4A*
G04*
G04*
G04 #@! TF.FilePolarity,Positive*
G04*
G01*
G75*
%ADD10C,0.00787*%
%ADD15C,0.01000*%
D10*
X93799Y73228D02*
Y86614D01*
X100295Y73228D02*
Y86614D01*
X93799D02*
X100295D01*
X93799Y73228D02*
X100295D01*
X17520Y135433D02*
X36417D01*
Y143307D01*
X17520D02*
X36417D01*
X17520Y135433D02*
Y143307D01*
X24213Y135433D02*
Y143307D01*
X61713Y169390D02*
X68209D01*
X61713Y156004D02*
X68209D01*
X61713D02*
Y169390D01*
X68209Y156004D02*
Y169390D01*
X93799Y43012D02*
X100295D01*
X93799Y56398D02*
X100295D01*
Y43012D02*
Y56398D01*
X93799Y43012D02*
Y56398D01*
D15*
X68247Y151310D02*
X69247Y152310D01*
X71246D01*
X72246Y151310D01*
Y147312D01*
X71246Y146312D01*
X69247D01*
X68247Y147312D01*
X66248Y146312D02*
X64249D01*
X65248D01*
Y152310D01*
X66248Y151310D01*
X61250Y146312D02*
X59250D01*
X60250D01*
Y152310D01*
X61250Y151310D01*
X59404Y141665D02*
X60404Y142664D01*
X62403D01*
X63403Y141665D01*
Y137666D01*
X62403Y136666D01*
X60404D01*
X59404Y137666D01*
X57405Y136666D02*
X55406D01*
X56405D01*
Y142664D01*
X57405Y141665D01*
X52407D02*
X51407Y142664D01*
X49408D01*
X48408Y141665D01*
Y137666D01*
X49408Y136666D01*
X51407D01*
X52407Y137666D01*
Y141665D01*
X98441Y63318D02*
X99440Y64318D01*
X101440D01*
X102439Y63318D01*
Y59320D01*
X101440Y58320D01*
X99440D01*
X98441Y59320D01*
X96441Y63318D02*
X95442Y64318D01*
X93442D01*
X92443Y63318D01*
Y62319D01*
X93442Y61319D01*
X94442D01*
X93442D01*
X92443Y60319D01*
Y59320D01*
X93442Y58320D01*
X95442D01*
X96441Y59320D01*
X110055Y70602D02*
X111055Y71601D01*
X113054D01*
X114053Y70602D01*
Y66603D01*
X113054Y65603D01*
X111055D01*
X110055Y66603D01*
X104057Y65603D02*
X108055D01*
X104057Y69602D01*
Y70602D01*
X105056Y71601D01*
X107056D01*
X108055Y70602D01*
M02*
