M48
;Layer_Color=9474304
;FILE_FORMAT=4:4
METRIC,LZ
;TYPE=PLATED
T1F00S00C0.3300
T2F00S00C0.7112
T3F00S00C0.8000
T4F00S00C0.9000
T5F00S00C1.1000
T6F00S00C1.2000
;TYPE=NON_PLATED
T7F00S00C2.2000
%
T01
X00575Y0005
X00625
X0065Y001
X006
X00625Y0015
X00625Y00165
X00656
Y00198
X00625
X006Y002
X00575Y0015
X00525
X0055Y002
X005
X00525Y0025
X00425
X00375
X00325
X00275
X00267Y00191
X00305Y00173
X003Y001
X00267Y00116
X00361Y00118
X00375Y0015
X004Y002
Y001
X00425Y0005
X00475
X00525
X005Y001
X00375Y0005
X00225
X00175
Y0015
Y0025
X00125
X001Y001
Y003
X00103Y00338
X0015Y003
X00125Y0045
X00075
X00025Y0035
X00175
X00225
X00275
X00325
X00375
X00425
X00475
X00525
X0055Y003
X005
X0035
X003
X0025
X002
X00183Y00432
X00175Y0045
X00225
X00275
X00325
X00375
X00425
X00475
X00525
X00575
X00625
X00575Y0035
T02
X00372Y00173
Y00216
T03
X0056Y003775
Y004025
T04
X002131Y000859
Y001113
Y001367
Y001621
Y001875
Y002129
Y002383
X00252Y002385
X00352
X004625Y002625
X005625
X005625Y001815
Y001315
X005625Y000855
X004625
X0043
X0038
X00349Y000855
X00249
X001369Y000859
Y001113
Y001367
Y001621
Y0018725
Y0021265
Y0023805
X001Y002125
Y001625
X00087Y003185
X00037
X0023Y003773
Y004027
X00355Y003773
X00455
X005Y003525
Y004025
X006125Y003
X006625
T05
X002473Y000525
X002727
X002779Y002725
X002525
X0043Y001679
Y001425
X000627Y001371
Y001117
X000373
Y001371
Y001625
X000627
Y001879
Y002133
X000373
Y001879
Y002625
X000627
X0028Y004025
X0043Y003125
X004554
T06
X0064Y001309
Y001817
Y002325
X00111Y004025
X00086
X00061
X0064
Y003775
Y003525
T07
X00671Y00029
X00029Y00029
Y00471
X00671
M30
